<svg width="24" height="24" viewBox="0 0 24 24" fill="none" xmlns="http://www.w3.org/2000/svg">
<g opacity="0.4">
<path d="M22.5004 7.16953L20.1826 3.52734C19.9754 3.20039 19.6076 3 19.2147 3H4.78615C4.39329 3 4.02543 3.20039 3.81829 3.52734L1.50043 7.16953C0.304003 9.05039 1.36472 11.666 3.60043 11.9648C3.76115 11.9859 3.92543 11.9965 4.08972 11.9965C5.14686 11.9965 6.08257 11.5395 6.72543 10.8328C7.36829 11.5395 8.30757 11.9965 9.36115 11.9965C10.4183 11.9965 11.354 11.5395 11.9969 10.8328C12.6397 11.5395 13.579 11.9965 14.6326 11.9965C15.6897 11.9965 16.6254 11.5395 17.2683 10.8328C17.9147 11.5395 18.8504 11.9965 19.904 11.9965C20.0719 11.9965 20.2326 11.9859 20.3933 11.9648C22.6361 11.6695 23.7004 9.05391 22.5004 7.16953ZM19.9111 13.125C19.554 13.125 19.2004 13.0723 18.8576 12.9914V16.5H5.14329V12.9914C4.80043 13.0688 4.44686 13.125 4.08972 13.125C3.87543 13.125 3.65757 13.1109 3.44686 13.0828C3.24686 13.0547 3.05043 13.009 2.86115 12.9563V19.875C2.86115 20.4973 3.37186 21 4.004 21H20.004C20.6361 21 21.1469 20.4973 21.1469 19.875V12.9563C20.954 13.0125 20.7611 13.0582 20.5611 13.0828C20.3433 13.1109 20.129 13.125 19.9111 13.125Z" />
</g>
</svg>
